<?xml version="1.0" encoding="UTF-8"?>
<!DOCTYPE svg PUBLIC "-//W3C//DTD SVG 1.1//EN" "http://www.w3.org/Graphics/SVG/1.1/DTD/svg11.dtd">
<svg xmlns="http://www.w3.org/2000/svg" viewBox="0 0 512 512" style="enable-background:new 0 0 512 512" xml:space="preserve"><path style="fill:#f9e0a4" d="M396.501 73.356c-18.759-51.542-75.75-78.117-127.292-59.358-17 6.187-31.281 16.535-42.118 29.473-16.617-2.945-34.209-1.692-51.208 4.495-16.999 6.186-31.281 16.534-42.117 29.472-16.618-2.945-34.21-1.691-51.209 4.496-51.541 18.759-78.116 75.75-59.357 127.292 18.76 51.543 75.751 78.117 127.293 59.357h.001l40.474 111.202 186.651-67.935-40.474-111.202c51.541-18.76 78.116-75.749 59.356-127.292z"/><path style="opacity:.2;enable-background:new" d="M287.245 361.913a7.985 7.985 0 0 1-7.502-5.254l-39.302-107.984a7.983 7.983 0 0 1 15.001-5.459L294.744 351.2a7.982 7.982 0 0 1-7.499 10.713zM239.277 379.373a7.985 7.985 0 0 1-7.501-5.254l-39.302-107.984a7.983 7.983 0 0 1 15.001-5.46l39.302 107.984a7.981 7.981 0 0 1-4.771 10.23 7.942 7.942 0 0 1-2.729.484zM335.216 344.454a7.985 7.985 0 0 1-7.502-5.254l-39.303-107.984a7.982 7.982 0 0 1 15.001-5.459l39.303 107.984a7.982 7.982 0 0 1-7.499 10.713z"/><path style="fill:#333e48" d="m377.618 311.851 13.358 36.703c2.045 5.618-.878 11.889-6.495 13.933l-166.222 60.5c-5.618 2.044-11.887-.879-13.933-6.496l-13.358-36.704 186.65-67.936z"/><circle style="fill:#fff" cx="314.44" cy="65.906" r="38.171"/><circle style="fill:#fff" cx="362.756" cy="124.835" r="18.595"/><path style="fill:#6e4c4b" d="M462.041 487.713c0 8.967-7.337 16.305-16.304 16.305H154.368c-8.967 0-16.305-7.338-16.305-16.305v-47.769c0-8.967 7.338-16.305 16.305-16.305h291.368c8.968 0 16.304 7.338 16.304 16.305l.001 47.769z"/><path style="fill:#f9be00" d="M462.933 152.498c-27.682-7.418-63.343 35.901-70.76 63.584-6.196 23.12 4.251 46.771 23.988 58.262l-38.842 125.911c-2.655 9.908 3.225 20.093 13.134 22.747 9.907 2.654 20.093-3.226 22.748-13.133l29.314-128.464c22.837-.083 43.71-15.34 49.907-38.461 7.417-27.682-1.808-83.028-29.489-90.446z"/><path style="opacity:.1;enable-background:new" d="M442.33 259.677a30.24 30.24 0 0 1-7.835-1.041c-7.78-2.085-14.283-7.074-18.309-14.049-4.027-6.975-5.097-15.1-3.013-22.879 2.117-7.901 9.044-21.073 19.747-32.692 9.94-10.79 19.852-16.591 24.387-15.52 4.536 1.073 8.596 7.421 12.522 22.203 4.359 16.416 3.882 33.08 1.594 41.617-3.527 13.166-15.49 22.361-29.091 22.361h-.002z"/><path style="fill:#f9be00" d="M362.751 471.81H237.354a7.982 7.982 0 0 1 0-15.964H362.75a7.982 7.982 0 0 1 7.982 7.982 7.98 7.98 0 0 1-7.981 7.982z"/><path style="fill:#1e252b" d="M465 144.789a33.17 33.17 0 0 0-8.584-1.113c-30.804 0-64.363 42.016-71.951 70.341-6.416 23.94 2.696 49.244 22.305 63.696l-15.177 49.197-6.474-17.788-37.844-103.978c50.707-22.815 76.045-81.444 56.728-134.516C388.626 28.382 348.105 0 303.168 0c-12.499 0-24.843 2.186-36.691 6.497-16.283 5.927-30.89 15.706-42.502 28.414a107.06 107.06 0 0 0-14.142-.942c-12.498 0-24.839 2.186-36.681 6.496-16.285 5.927-30.892 15.706-42.502 28.414a107.014 107.014 0 0 0-14.139-.942c-12.498 0-24.841 2.186-36.684 6.496-26.932 9.802-48.434 29.505-60.546 55.48s-13.385 55.111-3.582 82.043c15.376 42.244 55.898 70.626 100.833 70.626 9.849 0 19.601-1.357 29.091-4.043l37.844 103.976 12.062 33.142h-41.16c-13.391 0-24.287 10.895-24.287 24.287v47.769c0 13.392 10.895 24.287 24.287 24.287h291.368c13.391 0 24.286-10.895 24.286-24.287v-47.769c0-13.391-10.895-24.287-24.286-24.287h-26.144a26.467 26.467 0 0 0 1.318-3.722c.026-.097.05-.194.072-.291l27.982-122.627c24.207-2.71 44.751-20.067 51.166-44.008 7.975-29.759-1.148-91.114-35.131-100.22zm-81.524 206.496c.255.702.181 1.328.049 1.778l-.03.097a2.866 2.866 0 0 1-1.745 1.827l-166.22 60.499c-1.474.539-3.168-.255-3.702-1.726l-10.629-29.204 171.65-62.475 10.627 29.204zm-12.563 64.372H261.735l115.443-42.017-7.485 24.261c-.029.095-.056.19-.082.287-1.577 5.876-1.102 11.976 1.302 17.469zM157.994 265.854a7.985 7.985 0 0 0-10.231-4.771c-10.091 3.674-20.598 5.536-31.23 5.536-38.25 0-72.743-24.161-85.832-60.123-8.344-22.926-7.261-47.727 3.049-69.837s28.613-38.882 51.538-47.225c10.088-3.672 20.594-5.533 31.225-5.533 5.297 0 10.633.469 15.861 1.396a7.976 7.976 0 0 0 7.511-2.734c10.249-12.236 23.641-21.605 38.729-27.096 10.087-3.672 20.591-5.533 31.221-5.533 5.297 0 10.634.469 15.863 1.396a7.977 7.977 0 0 0 7.511-2.734c10.25-12.237 23.642-21.606 38.73-27.098 10.089-3.673 20.596-5.535 31.228-5.535 38.25 0 72.744 24.161 85.832 60.123 17.225 47.323-7.262 99.837-54.587 117.062a7.98 7.98 0 0 0-4.77 10.23l37.745 103.702-171.65 62.475-37.743-103.701zm287.742 165.767c4.59 0 8.322 3.733 8.322 8.323v47.769c0 4.59-3.733 8.323-8.322 8.323H154.368c-4.59 0-8.323-3.733-8.323-8.323v-47.769c0-4.59 3.733-8.323 8.323-8.323h60.097c.032 0 .063.003.095.003l.084-.003h231.092zm38.976-190.743c-5.117 19.091-22.48 32.474-42.227 32.545a7.983 7.983 0 0 0-7.753 6.206l-29.276 128.298c-1.281 4.558-5.451 7.73-10.186 7.73a10.62 10.62 0 0 1-2.753-.365 10.518 10.518 0 0 1-6.431-4.935 10.515 10.515 0 0 1-1.09-7.91l38.792-125.75a7.98 7.98 0 0 0-3.612-9.25c-17.065-9.935-25.411-30.207-20.294-49.299 3.116-11.628 12.112-26.721 22.917-38.452 11.741-12.746 23.993-20.057 33.615-20.057 1.544 0 3.043.192 4.453.569 21.456 5.75 30.665 55.216 23.845 80.67z"/></svg>